# xmcd CD database file
# Generated: Sun Oct 6 11:10:14 2002 by KSCD
# 
# Track frame offsets:
#       150
#       12230
#       26005
#       37492
#       50942
#       63377
#       74600
#       88135
#       102432
#       119672
#       134265
#       144997
#       158620
#       171757
#       183815
#       193750
#       206542
#       216107
#       227130
#       239567
#       252190
#       263840
#
# Disc length: 3649 seconds
#
# Revision: 2
# Processed by: cddbd v1.4PL0 Copyright (c) Steve Scherf et al.
# Submitted via: Kscd 1.3.3
#
DISCID=510e3f16
DTITLE=John Lee Hooker - John Lee Hooker
DYEAR=1900
DGENRE=
TTITLE0=Crawlin King Snake
TTITLE1=I', gonna kill that women
TTITLE2=Dimples (piano version)
TTITLE3=Heart trouble Blues 
TTITLE4=Don't you remember me
TTITLE5=Boom! Boom!
TTITLE6=Slims stomp
TTITLE7=I'm in the mood
TTITLE8=Blues before sunrise
TTITLE9=Baby please don't go
TTITLE10=Maudie
TTITLE11=Thinking Blues
TTITLE12=Devil's Jump
TTITLE13=Whiskey and wimmin
TTITLE14=Dimples (orchestral version)
TTITLE15=I'm so excited
TTITLE16=Onions
TTITLE17=No shoes
TTITLE18=Drugstore woman
TTITLE19=Hobo Blues
TTITLE20=Little wheel
TTITLE21=Big road by myself
EXTD=
EXTT0=
EXTT1=
EXTT2=
EXTT3=
EXTT4=
EXTT5=
EXTT6=
EXTT7=
EXTT8=
EXTT9=
EXTT10=
EXTT11=
EXTT12=
EXTT13=
EXTT14=
EXTT15=
EXTT16=
EXTT17=
EXTT18=
EXTT19=
EXTT20=
EXTT21=
PLAYORDER=
